<svg width="282" height="282" viewBox="0 0 282 282" fill="none" xmlns="http://www.w3.org/2000/svg">
<rect x="1" y="1" width="280" height="280" rx="14" fill="#EEE9DB" fill-opacity="0.75" stroke="#373738" stroke-width="2" stroke-linecap="round" stroke-dasharray="18 18"/>
<path d="M147.375 135.781H133.55C131.671 135.781 129.868 135.036 128.539 133.708C127.21 132.381 126.463 130.58 126.463 128.703C126.463 126.826 127.21 125.025 128.539 123.698C129.868 122.371 131.671 121.625 133.55 121.625H159.254V112.188H144.752V102.278H136.247V112.188H133.552C129.167 112.188 124.96 113.927 121.859 117.025C118.757 120.122 117.015 124.323 117.015 128.703C117.015 133.083 118.757 137.284 121.859 140.381C124.96 143.478 129.167 145.219 133.552 145.219H147.377C149.256 145.219 151.059 145.964 152.388 147.292C153.718 148.619 154.464 150.42 154.464 152.297C154.464 154.174 153.718 155.975 152.388 157.302C151.059 158.629 149.256 159.375 147.377 159.375H119.237V168.812H136.247V178.722H144.752V168.812H147.373C151.759 168.812 155.965 167.072 159.066 163.975C162.168 160.877 163.91 156.677 163.91 152.297C163.91 147.917 162.168 143.716 159.066 140.619C155.965 137.522 151.759 135.781 147.373 135.781H147.375ZM211.375 65H69.625C63.3593 65 57.3501 67.4857 52.9196 71.9104C48.489 76.3351 46 82.3363 46 88.5938V192.406C46 198.663 48.489 204.665 52.9196 209.09C57.3501 213.514 63.3593 216 69.625 216H211.375C217.64 216 223.65 213.514 228.081 209.09C232.511 204.665 235 198.663 235 192.406V88.5938C235 82.3363 232.511 76.3351 228.081 71.9104C223.65 67.4857 217.64 65 211.375 65ZM225.55 102.75H187.75V112.188H225.55V131.062H187.75V140.5H225.55V192.406C225.545 196.16 224.051 199.758 221.394 202.412C218.737 205.066 215.133 206.558 211.375 206.562H69.625C65.8668 206.558 62.2638 205.066 59.6065 202.412C56.9491 199.758 55.4543 196.16 55.45 192.406V140.5H93.25V131.062H55.45V112.188H93.25V102.75H55.45V88.5938C55.4543 84.8406 56.9491 81.2423 59.6065 78.5885C62.2638 75.9346 65.8668 74.4417 69.625 74.4375H211.375C215.133 74.4417 218.737 75.9346 221.394 78.5885C224.051 81.2423 225.545 84.8406 225.55 88.5938V102.75Z" fill="#373738"/>
</svg>
