<svg width="282" height="282" viewBox="0 0 282 282" fill="none" xmlns="http://www.w3.org/2000/svg">
<rect x="1" y="1" width="280" height="280" rx="14" fill="#EEE9DB" fill-opacity="0.75" stroke="#373738" stroke-width="2" stroke-linecap="round" stroke-dasharray="18 18"/>
<path d="M123.442 80.2222L106.242 63H55V218H227V80.2222H123.442ZM218.4 209.389H63.6V71.6111H102.679L119.879 88.8333H218.4V209.389ZM125.449 155.595L115.836 185.218L141 166.909L166.164 185.215L156.551 155.593L181.716 137.286H150.611L141 107.67L131.389 137.292H100.285L125.449 155.595ZM136.387 144.178L137.935 139.418L141 129.963L144.068 139.418L145.616 144.178H160.544L152.511 150.022L148.469 152.964L150.017 157.724L153.086 167.18L145.042 161.339L141 158.394L136.958 161.335L128.925 167.18L131.992 157.722L133.54 152.962L129.498 150.02L121.464 144.176L136.387 144.178Z" fill="#373738"/>
</svg>
