<svg width="282" height="282" viewBox="0 0 282 282" fill="none" xmlns="http://www.w3.org/2000/svg">
<rect x="1" y="1" width="280" height="280" rx="14" fill="#EEE9DB" fill-opacity="0.75" stroke="#373738" stroke-width="2" stroke-linecap="round" stroke-dasharray="18 18"/>
<path d="M85.4933 126.126C90.3584 126.127 95.1145 124.684 99.1602 121.982C103.206 119.28 106.359 115.438 108.221 110.944C110.084 106.449 110.571 101.503 109.623 96.7315C108.674 91.9598 106.332 87.5765 102.892 84.136C99.4519 80.6956 95.0689 78.3525 90.2973 77.4031C85.5258 76.4537 80.5798 76.9406 76.0849 78.8022C71.5901 80.6639 67.7481 83.8166 65.0452 87.8617C62.3421 91.9069 60.8994 96.6628 60.8994 101.528C60.9073 108.049 63.5009 114.3 68.1113 118.911C72.7217 123.522 78.9727 126.117 85.4933 126.126ZM85.4933 84.0863C88.9429 84.0863 92.3151 85.1092 95.1833 87.0257C98.0516 88.9421 100.287 91.6661 101.607 94.8531C102.927 98.0401 103.273 101.547 102.6 104.93C101.927 108.314 100.266 111.421 97.8267 113.861C95.3875 116.3 92.2798 117.961 88.8965 118.634C85.5132 119.307 82.0063 118.962 78.8192 117.642C75.6322 116.322 72.9081 114.087 70.9915 111.219C69.0749 108.35 68.0518 104.978 68.0517 101.529C68.0566 96.9043 69.8957 92.4705 73.1655 89.2004C76.4353 85.9303 80.8689 84.0908 85.4933 84.0855V84.0863ZM150.703 126.126C155.568 126.126 160.324 124.683 164.369 121.981C168.414 119.278 171.567 115.436 173.429 110.941C175.291 106.447 175.778 101.501 174.829 96.7293C173.88 91.9578 171.537 87.5748 168.097 84.1347C164.657 80.6946 160.274 78.3519 155.502 77.4028C150.731 76.4537 145.785 76.9409 141.291 78.8027C136.796 80.6646 132.954 83.8174 130.251 87.8626C127.548 91.9078 126.106 96.6637 126.106 101.529C126.114 108.05 128.708 114.302 133.319 118.913C137.93 123.524 144.182 126.117 150.703 126.126ZM150.703 84.0863C154.152 84.0863 157.525 85.1092 160.393 87.0257C163.261 88.9421 165.497 91.6661 166.817 94.8531C168.137 98.0401 168.483 101.547 167.81 104.93C167.136 108.314 165.476 111.421 163.036 113.861C160.597 116.3 157.489 117.961 154.106 118.634C150.723 119.307 147.216 118.962 144.029 117.642C140.842 116.322 138.117 114.087 136.201 111.219C134.285 108.35 133.261 104.978 133.261 101.529C133.266 96.9043 135.105 92.4705 138.375 89.2004C141.645 85.9303 146.078 84.0908 150.703 84.0855V84.0863ZM150.583 139.447C138.596 139.447 127.018 143.8 118 151.697C108.537 143.423 96.2841 139.054 83.7213 139.474C71.1586 139.893 59.2243 145.069 50.334 153.956L49 155.29V203.053H187V155.29L185.666 153.957C181.062 149.346 175.593 145.691 169.572 143.201C163.551 140.711 157.098 139.435 150.583 139.447V139.447ZM114.167 195.387H56.6667C56.6667 195.387 56.6667 158.574 56.784 158.456C64.5373 151.17 74.7769 147.113 85.4167 147.113C96.0565 147.113 106.296 151.17 114.049 158.456L114.167 158.574V195.387ZM179.333 195.387H121.833V193.944C121.833 187.515 121.848 158.559 121.951 158.456C129.704 151.17 139.944 147.113 150.583 147.113C161.223 147.113 171.463 151.17 179.216 158.456L179.333 158.574V195.387ZM213.323 121.729V102.457H206.676V121.729H187.406V128.375H206.676V147.647H213.323V128.375H232.594V121.729H213.323Z" fill="#373738"/>
</svg>
